<svg width="40" height="40" viewBox="0 0 41 41" fill="none" xmlns="http://www.w3.org/2000/svg">
  <path d="M1.0248 29.3748C2.77652 31.8769 10.3911 33.8426 13.9875 29.1578C17.8785 31.0181 24.2963 30.4414 29.5204 27.5269C30.2459 27.1223 30.9342 26.6107 31.3543 25.8929C32.3046 24.2729 32.3278 22.0251 30.5947 18.7091C27.7036 11.4927 22.5058 5.15988 20.4069 2.61281C19.9759 2.21905 17.2259 1.66096 15.5501 1.12457C14.8091 0.896687 13.431 0.743212 11.7816 2.91666C10.9987 3.94758 7.44725 6.47759 11.9537 8.17977C12.6512 8.35804 13.1659 8.68515 16.35 8.10225C16.7655 8.03094 17.801 8.10225 18.5311 9.38431L20.055 11.564C20.1982 11.7659 20.2887 12.0003 20.3185 12.2461C20.5851 14.5714 20.5758 17.4797 21.8718 18.9525C19.8705 17.5061 14.6417 15.7868 10.7011 20.6779M1 17.9572C2.77376 16.3758 5.03524 15.449 7.40862 15.3308C9.78201 15.2126 12.1244 15.9102 14.0464 17.3076" stroke="black" stroke-width="1.5" stroke-linecap="round" stroke-linejoin="round"/>
</svg>
